<svg width="101" height="100" viewBox="0 0 101 100" fill="none" xmlns="http://www.w3.org/2000/svg">
<mask id="mask0_3346_23" style="mask-type:alpha" maskUnits="userSpaceOnUse" x="0" y="0" width="101" height="100">
<rect x="0.582031" width="100" height="100" fill="#D9D9D9" style="fill:#D9D9D9;fill:color(display-p3 0.8510 0.8510 0.8510);fill-opacity:1;"/>
</mask>
<g mask="url(#mask0_3346_23)">
<path d="M25.5807 83.333C24.4002 83.333 23.4106 82.9337 22.612 82.1351C21.8134 81.3365 21.4141 80.3469 21.4141 79.1663C21.4141 77.9858 21.8134 76.9962 22.612 76.1976C23.4106 75.399 24.4002 74.9997 25.5807 74.9997H75.5807C76.7613 74.9997 77.7509 75.399 78.5495 76.1976C79.3481 76.9962 79.7474 77.9858 79.7474 79.1663C79.7474 80.3469 79.3481 81.3365 78.5495 82.1351C77.7509 82.9337 76.7613 83.333 75.5807 83.333H25.5807ZM28.4974 68.7497C26.4835 68.7497 24.6953 68.09 23.1328 66.7705C21.5703 65.4511 20.6155 63.7844 20.2682 61.7705L16.1016 35.3122C15.9627 35.3122 15.8064 35.3295 15.6328 35.3643C15.4592 35.399 15.303 35.4163 15.1641 35.4163C13.428 35.4163 11.9523 34.8087 10.737 33.5934C9.5217 32.3781 8.91406 30.9025 8.91406 29.1663C8.91406 27.4302 9.5217 25.9545 10.737 24.7393C11.9523 23.524 13.428 22.9163 15.1641 22.9163C16.9002 22.9163 18.3759 23.524 19.5911 24.7393C20.8064 25.9545 21.4141 27.4302 21.4141 29.1663C21.4141 29.6525 21.362 30.1038 21.2578 30.5205C21.1536 30.9372 21.0321 31.3191 20.8932 31.6663L33.9141 37.4997L46.9349 19.6872C46.171 19.1316 45.546 18.4025 45.0599 17.4997C44.5738 16.5969 44.3307 15.6247 44.3307 14.583C44.3307 12.8469 44.9384 11.3712 46.1536 10.1559C47.3689 8.94065 48.8446 8.33301 50.5807 8.33301C52.3168 8.33301 53.7925 8.94065 55.0078 10.1559C56.2231 11.3712 56.8307 12.8469 56.8307 14.583C56.8307 15.6247 56.5877 16.5969 56.1016 17.4997C55.6155 18.4025 54.9905 19.1316 54.2266 19.6872L67.2474 37.4997L80.2682 31.6663C80.1293 31.3191 80.0078 30.9372 79.9037 30.5205C79.7995 30.1038 79.7474 29.6525 79.7474 29.1663C79.7474 27.4302 80.355 25.9545 81.5703 24.7393C82.7856 23.524 84.2613 22.9163 85.9974 22.9163C87.7335 22.9163 89.2092 23.524 90.4245 24.7393C91.6398 25.9545 92.2474 27.4302 92.2474 29.1663C92.2474 30.9025 91.6398 32.3781 90.4245 33.5934C89.2092 34.8087 87.7335 35.4163 85.9974 35.4163C85.8585 35.4163 85.7023 35.399 85.5287 35.3643C85.355 35.3295 85.1988 35.3122 85.0599 35.3122L80.8932 61.7705C80.546 63.7844 79.5911 65.4511 78.0286 66.7705C76.4661 68.09 74.678 68.7497 72.6641 68.7497H28.4974ZM28.4974 60.4163H72.6641L75.3724 43.0205L70.5807 45.1038C68.7752 45.8677 66.9349 46.0066 65.0599 45.5205C63.1849 45.0344 61.6571 43.9927 60.4766 42.3955L50.5807 28.7497L40.6849 42.3955C39.5043 43.9927 37.9766 45.0344 36.1016 45.5205C34.2266 46.0066 32.3863 45.8677 30.5807 45.1038L25.7891 43.0205L28.4974 60.4163Z" fill="url(#paint0_linear_3346_23)" style=""/>
<g clip-path="url(#paint1_diamond_3346_23_clip_path)" data-figma-skip-parse="true"><g transform="matrix(0 0.0375 -0.0416667 0 50.5807 45.833)"><rect x="0" y="0" width="1000.67" height="1000.6" fill="url(#paint1_diamond_3346_23)" opacity="0.2" shape-rendering="crispEdges"/><rect x="0" y="0" width="1000.67" height="1000.6" transform="scale(1 -1)" fill="url(#paint1_diamond_3346_23)" opacity="0.2" shape-rendering="crispEdges"/><rect x="0" y="0" width="1000.67" height="1000.6" transform="scale(-1 1)" fill="url(#paint1_diamond_3346_23)" opacity="0.2" shape-rendering="crispEdges"/><rect x="0" y="0" width="1000.67" height="1000.6" transform="scale(-1)" fill="url(#paint1_diamond_3346_23)" opacity="0.2" shape-rendering="crispEdges"/></g></g><path d="M25.5807 83.333C24.4002 83.333 23.4106 82.9337 22.612 82.1351C21.8134 81.3365 21.4141 80.3469 21.4141 79.1663C21.4141 77.9858 21.8134 76.9962 22.612 76.1976C23.4106 75.399 24.4002 74.9997 25.5807 74.9997H75.5807C76.7613 74.9997 77.7509 75.399 78.5495 76.1976C79.3481 76.9962 79.7474 77.9858 79.7474 79.1663C79.7474 80.3469 79.3481 81.3365 78.5495 82.1351C77.7509 82.9337 76.7613 83.333 75.5807 83.333H25.5807ZM28.4974 68.7497C26.4835 68.7497 24.6953 68.09 23.1328 66.7705C21.5703 65.4511 20.6155 63.7844 20.2682 61.7705L16.1016 35.3122C15.9627 35.3122 15.8064 35.3295 15.6328 35.3643C15.4592 35.399 15.303 35.4163 15.1641 35.4163C13.428 35.4163 11.9523 34.8087 10.737 33.5934C9.5217 32.3781 8.91406 30.9025 8.91406 29.1663C8.91406 27.4302 9.5217 25.9545 10.737 24.7393C11.9523 23.524 13.428 22.9163 15.1641 22.9163C16.9002 22.9163 18.3759 23.524 19.5911 24.7393C20.8064 25.9545 21.4141 27.4302 21.4141 29.1663C21.4141 29.6525 21.362 30.1038 21.2578 30.5205C21.1536 30.9372 21.0321 31.3191 20.8932 31.6663L33.9141 37.4997L46.9349 19.6872C46.171 19.1316 45.546 18.4025 45.0599 17.4997C44.5738 16.5969 44.3307 15.6247 44.3307 14.583C44.3307 12.8469 44.9384 11.3712 46.1536 10.1559C47.3689 8.94065 48.8446 8.33301 50.5807 8.33301C52.3168 8.33301 53.7925 8.94065 55.0078 10.1559C56.2231 11.3712 56.8307 12.8469 56.8307 14.583C56.8307 15.6247 56.5877 16.5969 56.1016 17.4997C55.6155 18.4025 54.9905 19.1316 54.2266 19.6872L67.2474 37.4997L80.2682 31.6663C80.1293 31.3191 80.0078 30.9372 79.9037 30.5205C79.7995 30.1038 79.7474 29.6525 79.7474 29.1663C79.7474 27.4302 80.355 25.9545 81.5703 24.7393C82.7856 23.524 84.2613 22.9163 85.9974 22.9163C87.7335 22.9163 89.2092 23.524 90.4245 24.7393C91.6398 25.9545 92.2474 27.4302 92.2474 29.1663C92.2474 30.9025 91.6398 32.3781 90.4245 33.5934C89.2092 34.8087 87.7335 35.4163 85.9974 35.4163C85.8585 35.4163 85.7023 35.399 85.5287 35.3643C85.355 35.3295 85.1988 35.3122 85.0599 35.3122L80.8932 61.7705C80.546 63.7844 79.5911 65.4511 78.0286 66.7705C76.4661 68.09 74.678 68.7497 72.6641 68.7497H28.4974ZM28.4974 60.4163H72.6641L75.3724 43.0205L70.5807 45.1038C68.7752 45.8677 66.9349 46.0066 65.0599 45.5205C63.1849 45.0344 61.6571 43.9927 60.4766 42.3955L50.5807 28.7497L40.6849 42.3955C39.5043 43.9927 37.9766 45.0344 36.1016 45.5205C34.2266 46.0066 32.3863 45.8677 30.5807 45.1038L25.7891 43.0205L28.4974 60.4163Z" data-figma-gradient-fill="{&#34;type&#34;:&#34;GRADIENT_DIAMOND&#34;,&#34;stops&#34;:[{&#34;color&#34;:{&#34;r&#34;:0.0,&#34;g&#34;:0.0,&#34;b&#34;:0.0,&#34;a&#34;:0.80000001192092896},&#34;position&#34;:0.0},{&#34;color&#34;:{&#34;r&#34;:0.0,&#34;g&#34;:0.0,&#34;b&#34;:0.0,&#34;a&#34;:1.0},&#34;position&#34;:1.0}],&#34;stopsVar&#34;:[{&#34;color&#34;:{&#34;r&#34;:0.0,&#34;g&#34;:0.0,&#34;b&#34;:0.0,&#34;a&#34;:0.80000001192092896},&#34;position&#34;:0.0},{&#34;color&#34;:{&#34;r&#34;:0.0,&#34;g&#34;:0.0,&#34;b&#34;:0.0,&#34;a&#34;:1.0},&#34;position&#34;:1.0}],&#34;transform&#34;:{&#34;m00&#34;:5.1026954573328825e-15,&#34;m01&#34;:-83.333335876464844,&#34;m02&#34;:92.247398376464844,&#34;m10&#34;:75.0,&#34;m11&#34;:4.5924258692479469e-15,&#34;m12&#34;:8.33300781250},&#34;opacity&#34;:0.20000000298023224,&#34;blendMode&#34;:&#34;NORMAL&#34;,&#34;visible&#34;:true}" style=""/>
</g>
<defs>
<clipPath id="paint1_diamond_3346_23_clip_path"><path d="M25.5807 83.333C24.4002 83.333 23.4106 82.9337 22.612 82.1351C21.8134 81.3365 21.4141 80.3469 21.4141 79.1663C21.4141 77.9858 21.8134 76.9962 22.612 76.1976C23.4106 75.399 24.4002 74.9997 25.5807 74.9997H75.5807C76.7613 74.9997 77.7509 75.399 78.5495 76.1976C79.3481 76.9962 79.7474 77.9858 79.7474 79.1663C79.7474 80.3469 79.3481 81.3365 78.5495 82.1351C77.7509 82.9337 76.7613 83.333 75.5807 83.333H25.5807ZM28.4974 68.7497C26.4835 68.7497 24.6953 68.09 23.1328 66.7705C21.5703 65.4511 20.6155 63.7844 20.2682 61.7705L16.1016 35.3122C15.9627 35.3122 15.8064 35.3295 15.6328 35.3643C15.4592 35.399 15.303 35.4163 15.1641 35.4163C13.428 35.4163 11.9523 34.8087 10.737 33.5934C9.5217 32.3781 8.91406 30.9025 8.91406 29.1663C8.91406 27.4302 9.5217 25.9545 10.737 24.7393C11.9523 23.524 13.428 22.9163 15.1641 22.9163C16.9002 22.9163 18.3759 23.524 19.5911 24.7393C20.8064 25.9545 21.4141 27.4302 21.4141 29.1663C21.4141 29.6525 21.362 30.1038 21.2578 30.5205C21.1536 30.9372 21.0321 31.3191 20.8932 31.6663L33.9141 37.4997L46.9349 19.6872C46.171 19.1316 45.546 18.4025 45.0599 17.4997C44.5738 16.5969 44.3307 15.6247 44.3307 14.583C44.3307 12.8469 44.9384 11.3712 46.1536 10.1559C47.3689 8.94065 48.8446 8.33301 50.5807 8.33301C52.3168 8.33301 53.7925 8.94065 55.0078 10.1559C56.2231 11.3712 56.8307 12.8469 56.8307 14.583C56.8307 15.6247 56.5877 16.5969 56.1016 17.4997C55.6155 18.4025 54.9905 19.1316 54.2266 19.6872L67.2474 37.4997L80.2682 31.6663C80.1293 31.3191 80.0078 30.9372 79.9037 30.5205C79.7995 30.1038 79.7474 29.6525 79.7474 29.1663C79.7474 27.4302 80.355 25.9545 81.5703 24.7393C82.7856 23.524 84.2613 22.9163 85.9974 22.9163C87.7335 22.9163 89.2092 23.524 90.4245 24.7393C91.6398 25.9545 92.2474 27.4302 92.2474 29.1663C92.2474 30.9025 91.6398 32.3781 90.4245 33.5934C89.2092 34.8087 87.7335 35.4163 85.9974 35.4163C85.8585 35.4163 85.7023 35.399 85.5287 35.3643C85.355 35.3295 85.1988 35.3122 85.0599 35.3122L80.8932 61.7705C80.546 63.7844 79.5911 65.4511 78.0286 66.7705C76.4661 68.09 74.678 68.7497 72.6641 68.7497H28.4974ZM28.4974 60.4163H72.6641L75.3724 43.0205L70.5807 45.1038C68.7752 45.8677 66.9349 46.0066 65.0599 45.5205C63.1849 45.0344 61.6571 43.9927 60.4766 42.3955L50.5807 28.7497L40.6849 42.3955C39.5043 43.9927 37.9766 45.0344 36.1016 45.5205C34.2266 46.0066 32.3863 45.8677 30.5807 45.1038L25.7891 43.0205L28.4974 60.4163Z"/></clipPath><linearGradient id="paint0_linear_3346_23" x1="8.91406" y1="45.833" x2="92.2474" y2="45.833" gradientUnits="userSpaceOnUse">
<stop stop-color="#292929" style="stop-color:#292929;stop-color:color(display-p3 0.1625 0.1625 0.1625);stop-opacity:1;"/>
<stop offset="1" stop-color="#424242" style="stop-color:#424242;stop-color:color(display-p3 0.2583 0.2583 0.2583);stop-opacity:1;"/>
</linearGradient>
<linearGradient id="paint1_diamond_3346_23" x1="0" y1="0" x2="500" y2="500" gradientUnits="userSpaceOnUse">
<stop stop-opacity="0.8" style="stop-color:black;stop-opacity:0.8;"/>
<stop offset="1" style="stop-color:black;stop-opacity:1;"/>
</linearGradient>
</defs>
</svg>
