<svg width="101" height="100" viewBox="0 0 101 100" fill="none" xmlns="http://www.w3.org/2000/svg">
<mask id="mask0_3346_49" style="mask-type:alpha" maskUnits="userSpaceOnUse" x="0" y="0" width="101" height="100">
<rect x="0.582031" width="100" height="100" fill="#D9D9D9" style="fill:#D9D9D9;fill:color(display-p3 0.8510 0.8510 0.8510);fill-opacity:1;"/>
</mask>
<g mask="url(#mask0_3346_49)">
<path d="M60.0599 71.8747C60.8238 71.1802 61.2405 70.3122 61.3099 69.2705C61.3793 68.2288 61.0321 67.3261 60.2682 66.5622L48.7057 54.3747L48.8099 54.0622H49.8516C53.6016 54.0622 56.7092 52.9163 59.1745 50.6247C61.6398 48.333 63.1502 45.6594 63.7057 42.6038H65.4766C66.171 42.6038 66.7439 42.3608 67.1953 41.8747C67.6467 41.3886 67.8724 40.7983 67.8724 40.1038C67.8724 39.4094 67.6467 38.8365 67.1953 38.3851C66.7439 37.9337 66.171 37.708 65.4766 37.708H63.6016C63.3932 36.6663 63.0287 35.6768 62.5078 34.7393C61.987 33.8018 61.3446 32.8816 60.5807 31.9788H65.4766C66.171 31.9788 66.7439 31.7358 67.1953 31.2497C67.6467 30.7636 67.8724 30.1733 67.8724 29.4788C67.8724 28.7844 67.6467 28.2115 67.1953 27.7601C66.7439 27.3087 66.171 27.083 65.4766 27.083H36.3099C35.4766 27.083 34.7648 27.3781 34.1745 27.9684C33.5842 28.5587 33.2891 29.2705 33.2891 30.1038C33.2891 30.9372 33.5842 31.6316 34.1745 32.1872C34.7648 32.7427 35.4766 33.0205 36.3099 33.0205H49.5391C51.3446 33.0205 52.8203 33.4719 53.9661 34.3747C55.112 35.2775 55.8932 36.3886 56.3099 37.708H35.6849C34.9905 37.708 34.4175 37.9511 33.9661 38.4372C33.5148 38.9233 33.2891 39.5136 33.2891 40.208C33.2891 40.9025 33.5148 41.4754 33.9661 41.9268C34.4175 42.3782 34.9905 42.6038 35.6849 42.6038H56.4141C55.9974 43.9927 55.1988 45.1907 54.0182 46.1976C52.8377 47.2045 51.2405 47.708 49.2266 47.708H42.1432C41.2405 47.708 40.4592 47.9163 39.7995 48.333C39.1398 48.7497 38.6363 49.34 38.2891 50.1038C37.9418 50.8677 37.8377 51.649 37.9766 52.4476C38.1155 53.2462 38.4974 53.9927 39.1224 54.6872L54.7474 71.7705C55.4418 72.5344 56.3099 72.9163 57.3516 72.9163C58.3932 72.9163 59.296 72.5691 60.0599 71.8747ZM50.5807 91.6664C44.8168 91.6664 39.4002 90.5726 34.3307 88.3851C29.2613 86.1976 24.8516 83.2289 21.1016 79.4789C17.3516 75.7289 14.3828 71.3191 12.1953 66.2497C10.0078 61.1802 8.91406 55.7636 8.91406 49.9997C8.91406 44.2358 10.0078 38.8191 12.1953 33.7497C14.3828 28.6802 17.3516 24.2705 21.1016 20.5205C24.8516 16.7705 29.2613 13.8018 34.3307 11.6143C39.4002 9.42676 44.8168 8.33301 50.5807 8.33301C56.3446 8.33301 61.7613 9.42676 66.8307 11.6143C71.9002 13.8018 76.3099 16.7705 80.0599 20.5205C83.8099 24.2705 86.7786 28.6802 88.9661 33.7497C91.1536 38.8191 92.2474 44.2358 92.2474 49.9997C92.2474 55.7636 91.1536 61.1802 88.9661 66.2497C86.7786 71.3191 83.8099 75.7289 80.0599 79.4789C76.3099 83.2289 71.9002 86.1976 66.8307 88.3851C61.7613 90.5726 56.3446 91.6664 50.5807 91.6664ZM50.5807 83.333C59.8863 83.333 67.7682 80.1039 74.2266 73.6455C80.6849 67.1872 83.9141 59.3052 83.9141 49.9997C83.9141 40.6941 80.6849 32.8122 74.2266 26.3538C67.7682 19.8955 59.8863 16.6663 50.5807 16.6663C41.2752 16.6663 33.3932 19.8955 26.9349 26.3538C20.4766 32.8122 17.2474 40.6941 17.2474 49.9997C17.2474 59.3052 20.4766 67.1872 26.9349 73.6455C33.3932 80.1039 41.2752 83.333 50.5807 83.333Z" fill="url(#paint0_linear_3346_49)" style=""/>
<g clip-path="url(#paint1_diamond_3346_49_clip_path)" data-figma-skip-parse="true"><g transform="matrix(0 0.0416667 -0.0416667 0 50.5807 49.9997)"><rect x="0" y="0" width="1000.6" height="1000.6" fill="url(#paint1_diamond_3346_49)" opacity="0.2" shape-rendering="crispEdges"/><rect x="0" y="0" width="1000.6" height="1000.6" transform="scale(1 -1)" fill="url(#paint1_diamond_3346_49)" opacity="0.2" shape-rendering="crispEdges"/><rect x="0" y="0" width="1000.6" height="1000.6" transform="scale(-1 1)" fill="url(#paint1_diamond_3346_49)" opacity="0.2" shape-rendering="crispEdges"/><rect x="0" y="0" width="1000.6" height="1000.6" transform="scale(-1)" fill="url(#paint1_diamond_3346_49)" opacity="0.2" shape-rendering="crispEdges"/></g></g><path d="M60.0599 71.8747C60.8238 71.1802 61.2405 70.3122 61.3099 69.2705C61.3793 68.2288 61.0321 67.3261 60.2682 66.5622L48.7057 54.3747L48.8099 54.0622H49.8516C53.6016 54.0622 56.7092 52.9163 59.1745 50.6247C61.6398 48.333 63.1502 45.6594 63.7057 42.6038H65.4766C66.171 42.6038 66.7439 42.3608 67.1953 41.8747C67.6467 41.3886 67.8724 40.7983 67.8724 40.1038C67.8724 39.4094 67.6467 38.8365 67.1953 38.3851C66.7439 37.9337 66.171 37.708 65.4766 37.708H63.6016C63.3932 36.6663 63.0287 35.6768 62.5078 34.7393C61.987 33.8018 61.3446 32.8816 60.5807 31.9788H65.4766C66.171 31.9788 66.7439 31.7358 67.1953 31.2497C67.6467 30.7636 67.8724 30.1733 67.8724 29.4788C67.8724 28.7844 67.6467 28.2115 67.1953 27.7601C66.7439 27.3087 66.171 27.083 65.4766 27.083H36.3099C35.4766 27.083 34.7648 27.3781 34.1745 27.9684C33.5842 28.5587 33.2891 29.2705 33.2891 30.1038C33.2891 30.9372 33.5842 31.6316 34.1745 32.1872C34.7648 32.7427 35.4766 33.0205 36.3099 33.0205H49.5391C51.3446 33.0205 52.8203 33.4719 53.9661 34.3747C55.112 35.2775 55.8932 36.3886 56.3099 37.708H35.6849C34.9905 37.708 34.4175 37.9511 33.9661 38.4372C33.5148 38.9233 33.2891 39.5136 33.2891 40.208C33.2891 40.9025 33.5148 41.4754 33.9661 41.9268C34.4175 42.3782 34.9905 42.6038 35.6849 42.6038H56.4141C55.9974 43.9927 55.1988 45.1907 54.0182 46.1976C52.8377 47.2045 51.2405 47.708 49.2266 47.708H42.1432C41.2405 47.708 40.4592 47.9163 39.7995 48.333C39.1398 48.7497 38.6363 49.34 38.2891 50.1038C37.9418 50.8677 37.8377 51.649 37.9766 52.4476C38.1155 53.2462 38.4974 53.9927 39.1224 54.6872L54.7474 71.7705C55.4418 72.5344 56.3099 72.9163 57.3516 72.9163C58.3932 72.9163 59.296 72.5691 60.0599 71.8747ZM50.5807 91.6664C44.8168 91.6664 39.4002 90.5726 34.3307 88.3851C29.2613 86.1976 24.8516 83.2289 21.1016 79.4789C17.3516 75.7289 14.3828 71.3191 12.1953 66.2497C10.0078 61.1802 8.91406 55.7636 8.91406 49.9997C8.91406 44.2358 10.0078 38.8191 12.1953 33.7497C14.3828 28.6802 17.3516 24.2705 21.1016 20.5205C24.8516 16.7705 29.2613 13.8018 34.3307 11.6143C39.4002 9.42676 44.8168 8.33301 50.5807 8.33301C56.3446 8.33301 61.7613 9.42676 66.8307 11.6143C71.9002 13.8018 76.3099 16.7705 80.0599 20.5205C83.8099 24.2705 86.7786 28.6802 88.9661 33.7497C91.1536 38.8191 92.2474 44.2358 92.2474 49.9997C92.2474 55.7636 91.1536 61.1802 88.9661 66.2497C86.7786 71.3191 83.8099 75.7289 80.0599 79.4789C76.3099 83.2289 71.9002 86.1976 66.8307 88.3851C61.7613 90.5726 56.3446 91.6664 50.5807 91.6664ZM50.5807 83.333C59.8863 83.333 67.7682 80.1039 74.2266 73.6455C80.6849 67.1872 83.9141 59.3052 83.9141 49.9997C83.9141 40.6941 80.6849 32.8122 74.2266 26.3538C67.7682 19.8955 59.8863 16.6663 50.5807 16.6663C41.2752 16.6663 33.3932 19.8955 26.9349 26.3538C20.4766 32.8122 17.2474 40.6941 17.2474 49.9997C17.2474 59.3052 20.4766 67.1872 26.9349 73.6455C33.3932 80.1039 41.2752 83.333 50.5807 83.333Z" data-figma-gradient-fill="{&#34;type&#34;:&#34;GRADIENT_DIAMOND&#34;,&#34;stops&#34;:[{&#34;color&#34;:{&#34;r&#34;:0.0,&#34;g&#34;:0.0,&#34;b&#34;:0.0,&#34;a&#34;:0.80000001192092896},&#34;position&#34;:0.0},{&#34;color&#34;:{&#34;r&#34;:0.0,&#34;g&#34;:0.0,&#34;b&#34;:0.0,&#34;a&#34;:1.0},&#34;position&#34;:1.0}],&#34;stopsVar&#34;:[{&#34;color&#34;:{&#34;r&#34;:0.0,&#34;g&#34;:0.0,&#34;b&#34;:0.0,&#34;a&#34;:0.80000001192092896},&#34;position&#34;:0.0},{&#34;color&#34;:{&#34;r&#34;:0.0,&#34;g&#34;:0.0,&#34;b&#34;:0.0,&#34;a&#34;:1.0},&#34;position&#34;:1.0}],&#34;transform&#34;:{&#34;m00&#34;:5.1026954573328825e-15,&#34;m01&#34;:-83.333335876464844,&#34;m02&#34;:92.247398376464844,&#34;m10&#34;:83.333335876464844,&#34;m11&#34;:5.1026954573328825e-15,&#34;m12&#34;:8.33300781250},&#34;opacity&#34;:0.20000000298023224,&#34;blendMode&#34;:&#34;NORMAL&#34;,&#34;visible&#34;:true}" style=""/>
</g>
<defs>
<clipPath id="paint1_diamond_3346_49_clip_path"><path d="M60.0599 71.8747C60.8238 71.1802 61.2405 70.3122 61.3099 69.2705C61.3793 68.2288 61.0321 67.3261 60.2682 66.5622L48.7057 54.3747L48.8099 54.0622H49.8516C53.6016 54.0622 56.7092 52.9163 59.1745 50.6247C61.6398 48.333 63.1502 45.6594 63.7057 42.6038H65.4766C66.171 42.6038 66.7439 42.3608 67.1953 41.8747C67.6467 41.3886 67.8724 40.7983 67.8724 40.1038C67.8724 39.4094 67.6467 38.8365 67.1953 38.3851C66.7439 37.9337 66.171 37.708 65.4766 37.708H63.6016C63.3932 36.6663 63.0287 35.6768 62.5078 34.7393C61.987 33.8018 61.3446 32.8816 60.5807 31.9788H65.4766C66.171 31.9788 66.7439 31.7358 67.1953 31.2497C67.6467 30.7636 67.8724 30.1733 67.8724 29.4788C67.8724 28.7844 67.6467 28.2115 67.1953 27.7601C66.7439 27.3087 66.171 27.083 65.4766 27.083H36.3099C35.4766 27.083 34.7648 27.3781 34.1745 27.9684C33.5842 28.5587 33.2891 29.2705 33.2891 30.1038C33.2891 30.9372 33.5842 31.6316 34.1745 32.1872C34.7648 32.7427 35.4766 33.0205 36.3099 33.0205H49.5391C51.3446 33.0205 52.8203 33.4719 53.9661 34.3747C55.112 35.2775 55.8932 36.3886 56.3099 37.708H35.6849C34.9905 37.708 34.4175 37.9511 33.9661 38.4372C33.5148 38.9233 33.2891 39.5136 33.2891 40.208C33.2891 40.9025 33.5148 41.4754 33.9661 41.9268C34.4175 42.3782 34.9905 42.6038 35.6849 42.6038H56.4141C55.9974 43.9927 55.1988 45.1907 54.0182 46.1976C52.8377 47.2045 51.2405 47.708 49.2266 47.708H42.1432C41.2405 47.708 40.4592 47.9163 39.7995 48.333C39.1398 48.7497 38.6363 49.34 38.2891 50.1038C37.9418 50.8677 37.8377 51.649 37.9766 52.4476C38.1155 53.2462 38.4974 53.9927 39.1224 54.6872L54.7474 71.7705C55.4418 72.5344 56.3099 72.9163 57.3516 72.9163C58.3932 72.9163 59.296 72.5691 60.0599 71.8747ZM50.5807 91.6664C44.8168 91.6664 39.4002 90.5726 34.3307 88.3851C29.2613 86.1976 24.8516 83.2289 21.1016 79.4789C17.3516 75.7289 14.3828 71.3191 12.1953 66.2497C10.0078 61.1802 8.91406 55.7636 8.91406 49.9997C8.91406 44.2358 10.0078 38.8191 12.1953 33.7497C14.3828 28.6802 17.3516 24.2705 21.1016 20.5205C24.8516 16.7705 29.2613 13.8018 34.3307 11.6143C39.4002 9.42676 44.8168 8.33301 50.5807 8.33301C56.3446 8.33301 61.7613 9.42676 66.8307 11.6143C71.9002 13.8018 76.3099 16.7705 80.0599 20.5205C83.8099 24.2705 86.7786 28.6802 88.9661 33.7497C91.1536 38.8191 92.2474 44.2358 92.2474 49.9997C92.2474 55.7636 91.1536 61.1802 88.9661 66.2497C86.7786 71.3191 83.8099 75.7289 80.0599 79.4789C76.3099 83.2289 71.9002 86.1976 66.8307 88.3851C61.7613 90.5726 56.3446 91.6664 50.5807 91.6664ZM50.5807 83.333C59.8863 83.333 67.7682 80.1039 74.2266 73.6455C80.6849 67.1872 83.9141 59.3052 83.9141 49.9997C83.9141 40.6941 80.6849 32.8122 74.2266 26.3538C67.7682 19.8955 59.8863 16.6663 50.5807 16.6663C41.2752 16.6663 33.3932 19.8955 26.9349 26.3538C20.4766 32.8122 17.2474 40.6941 17.2474 49.9997C17.2474 59.3052 20.4766 67.1872 26.9349 73.6455C33.3932 80.1039 41.2752 83.333 50.5807 83.333Z"/></clipPath><linearGradient id="paint0_linear_3346_49" x1="8.91406" y1="49.9997" x2="92.2474" y2="49.9997" gradientUnits="userSpaceOnUse">
<stop stop-color="#292929" style="stop-color:#292929;stop-color:color(display-p3 0.1625 0.1625 0.1625);stop-opacity:1;"/>
<stop offset="1" stop-color="#424242" style="stop-color:#424242;stop-color:color(display-p3 0.2583 0.2583 0.2583);stop-opacity:1;"/>
</linearGradient>
<linearGradient id="paint1_diamond_3346_49" x1="0" y1="0" x2="500" y2="500" gradientUnits="userSpaceOnUse">
<stop stop-opacity="0.8" style="stop-color:black;stop-opacity:0.8;"/>
<stop offset="1" style="stop-color:black;stop-opacity:1;"/>
</linearGradient>
</defs>
</svg>
