<svg width="16" height="16" viewBox="0 0 16 16" fill="none" xmlns="http://www.w3.org/2000/svg">
<g clip-path="url(#clip0_3042_1430)">
<path d="M5.03355 14.4998C11.0699 14.4998 14.3725 9.49746 14.3725 5.16081C14.3725 5.02018 14.3694 4.87642 14.3631 4.7358C15.0056 4.27119 15.56 3.6957 16.0003 3.03639C15.402 3.30259 14.7667 3.47645 14.1162 3.55202C14.8012 3.14146 15.314 2.49649 15.5597 1.73667C14.9154 2.11854 14.2107 2.38791 13.4759 2.53325C12.9808 2.0072 12.3263 1.6589 11.6134 1.54219C10.9005 1.42548 10.169 1.54685 9.53203 1.88756C8.89505 2.22826 8.38805 2.76932 8.08941 3.42707C7.79076 4.08482 7.71712 4.82263 7.87986 5.52644C6.57514 5.46097 5.29874 5.12203 4.13341 4.53162C2.96808 3.9412 1.93984 3.11248 1.11534 2.09918C0.696281 2.82168 0.56805 3.67663 0.756703 4.49028C0.945357 5.30393 1.43674 6.01522 2.13098 6.47958C1.60979 6.46304 1.10001 6.32271 0.643764 6.0702V6.11083C0.643297 6.86904 0.905418 7.60401 1.38557 8.19081C1.86572 8.77761 2.53427 9.18003 3.27757 9.32965C2.79476 9.46174 2.28804 9.48099 1.7966 9.3859C2.00635 10.038 2.41443 10.6083 2.96391 11.0172C3.51339 11.4262 4.17684 11.6534 4.86167 11.6672C3.69903 12.5805 2.26283 13.0758 0.784392 13.0735C0.522203 13.0731 0.260272 13.057 0 13.0254C1.50194 13.9889 3.24909 14.5007 5.03355 14.4998Z" fill="white" style="fill:white;fill-opacity:1;"/>
</g>
<defs>
<clipPath id="clip0_3042_1430">
<rect width="15.1146" height="15.1146" fill="white" style="fill:white;fill-opacity:1;" transform="scale(1.0586)"/>
</clipPath>
</defs>
</svg>
