<svg width="16" height="16" viewBox="0 0 16 16" fill="none" xmlns="http://www.w3.org/2000/svg">
<g clip-path="url(#clip0_3042_1427)">
<path d="M16.0003 8.00017C16.0003 3.5818 12.4185 0 8.00017 0C3.5818 0 0 3.5818 0 8.00017C0 11.9932 2.92553 15.303 6.75014 15.9032V10.3127H4.71885V8.00017H6.75014V6.23763C6.75014 4.23259 7.94455 3.12507 9.77193 3.12507C10.6469 3.12507 11.5627 3.28132 11.5627 3.28132V5.25011H10.554C9.56021 5.25011 9.2502 5.86684 9.2502 6.50014V8.00017H11.469L11.1143 10.3127H9.2502V15.9032C13.0748 15.303 16.0003 11.9932 16.0003 8.00017Z" fill="white" style="fill:white;fill-opacity:1;"/>
</g>
<defs>
<clipPath id="clip0_3042_1427">
<rect width="15.1146" height="15.1146" fill="white" style="fill:white;fill-opacity:1;" transform="scale(1.0586)"/>
</clipPath>
</defs>
</svg>
