<svg width="16" height="16" viewBox="0 0 16 16" fill="none" xmlns="http://www.w3.org/2000/svg">
<g clip-path="url(#clip0_3042_1433)">
<path d="M14.8159 0H1.18128C0.528136 0 0 0.515636 0 1.15315V14.8441C0 15.4816 0.528136 16.0003 1.18128 16.0003H14.8159C15.4691 16.0003 16.0003 15.4816 16.0003 14.8472V1.15315C16.0003 0.515636 15.4691 0 14.8159 0ZM4.74698 13.6347H2.37193V5.997H4.74698V13.6347ZM3.55945 4.95636C2.79694 4.95636 2.1813 4.34072 2.1813 3.58133C2.1813 2.82194 2.79694 2.2063 3.55945 2.2063C4.31884 2.2063 4.93448 2.82194 4.93448 3.58133C4.93448 4.33759 4.31884 4.95636 3.55945 4.95636ZM13.6347 13.6347H11.2627V9.92209C11.2627 9.03769 11.2471 7.89704 10.0283 7.89704C8.79394 7.89704 8.60643 8.86269 8.60643 9.85959V13.6347H6.23763V5.997H8.51268V7.04078H8.54393C8.85956 6.44076 9.63458 5.80637 10.7877 5.80637C13.1909 5.80637 13.6347 7.38766 13.6347 9.44395V13.6347Z" fill="white" style="fill:white;fill-opacity:1;"/>
</g>
<defs>
<clipPath id="clip0_3042_1433">
<rect width="15.1146" height="15.1146" fill="white" style="fill:white;fill-opacity:1;" transform="scale(1.0586)"/>
</clipPath>
</defs>
</svg>
