<svg width="82" height="83" viewBox="0 0 82 83" fill="none" xmlns="http://www.w3.org/2000/svg">
<path d="M21.1667 37.2913C22.1389 35.3468 23.1458 33.4718 24.1875 31.6663C25.2292 29.8607 26.375 28.0552 27.625 26.2496L21.7917 25.1038L13.0417 33.8538L21.1667 37.2913ZM71.375 8.64546C66.5139 8.78435 61.3229 10.208 55.8021 12.9163C50.2812 15.6246 45.2639 19.2357 40.75 23.7496C37.8333 26.6663 35.2292 29.7913 32.9375 33.1246C30.6458 36.458 28.9444 39.583 27.8333 42.4996L39.7083 54.2705C42.625 53.1593 45.75 51.458 49.0833 49.1663C52.4167 46.8746 55.5417 44.2705 58.4583 41.3538C62.9722 36.8399 66.5833 31.8399 69.2917 26.3538C72 20.8677 73.4236 15.6941 73.5625 10.833C73.5625 10.5552 73.5104 10.2774 73.4062 9.99962C73.3021 9.72185 73.1458 9.47879 72.9375 9.27046C72.7292 9.06212 72.4861 8.90587 72.2083 8.80171C71.9306 8.69754 71.6528 8.64546 71.375 8.64546ZM48.4583 33.6455C46.8611 32.0482 46.0625 30.0864 46.0625 27.76C46.0625 25.4337 46.8611 23.4718 48.4583 21.8746C50.0556 20.2774 52.0347 19.4788 54.3958 19.4788C56.7569 19.4788 58.7361 20.2774 60.3333 21.8746C61.9306 23.4718 62.7292 25.4337 62.7292 27.76C62.7292 30.0864 61.9306 32.0482 60.3333 33.6455C58.7361 35.2427 56.7569 36.0413 54.3958 36.0413C52.0347 36.0413 50.0556 35.2427 48.4583 33.6455ZM44.9167 60.9371L48.3542 69.1663L57.1042 60.4163L55.9583 54.583C54.1528 55.833 52.3472 56.9614 50.5417 57.9684C48.7361 58.9753 46.8611 59.9649 44.9167 60.9371ZM81.4792 5.31212C82.0347 12.951 80.7847 20.3989 77.7292 27.6559C74.6736 34.9128 69.8472 41.8399 63.25 48.4371L65.3333 58.7496C65.6111 60.1385 65.5417 61.4927 65.125 62.8121C64.7083 64.1316 64.0139 65.2774 63.0417 66.2496L49.9167 79.3746C48.875 80.4163 47.625 80.8156 46.1667 80.5725C44.7083 80.3295 43.7014 79.5135 43.1458 78.1246L36.7917 63.2288L18.9792 45.4163L4.08333 39.0621C2.69444 38.5066 1.86111 37.4996 1.58333 36.0413C1.30556 34.583 1.6875 33.333 2.72917 32.2913L15.8542 19.1663C16.8264 18.1941 17.9896 17.4996 19.3438 17.083C20.6979 16.6663 22.0694 16.5968 23.4583 16.8746L33.7708 18.958C40.3681 12.3607 47.2951 7.53435 54.5521 4.47879C61.809 1.42324 69.2569 0.173236 76.8958 0.728791C77.4514 0.798236 78.0069 0.954485 78.5625 1.19754C79.1181 1.4406 79.6042 1.77046 80.0208 2.18712C80.4375 2.60379 80.7674 3.0899 81.0104 3.64546C81.2535 4.20101 81.4097 4.75657 81.4792 5.31212ZM7.9375 56.5621C10.3681 54.1316 13.3368 52.8989 16.8438 52.8642C20.3507 52.8295 23.3194 54.0274 25.75 56.458C28.1806 58.8885 29.3785 61.8573 29.3438 65.3642C29.309 68.8711 28.0764 71.8399 25.6458 74.2705C22.3125 77.6038 18.3715 79.583 13.8229 80.208C9.27431 80.833 4.70833 81.458 0.125 82.083C0.75 77.4996 1.375 72.9337 2 68.385C2.625 63.8364 4.60417 59.8955 7.9375 56.5621ZM13.875 62.3955C12.6944 63.576 11.8785 64.9996 11.4271 66.6663C10.9757 68.333 10.6111 70.0343 10.3333 71.7705C12.0694 71.4927 13.7708 71.1455 15.4375 70.7288C17.1042 70.3121 18.5278 69.5135 19.7083 68.333C20.5417 67.4996 20.9931 66.4927 21.0625 65.3121C21.1319 64.1316 20.75 63.1246 19.9167 62.2913C19.0833 61.458 18.0764 61.0587 16.8958 61.0934C15.7153 61.1281 14.7083 61.5621 13.875 62.3955Z" fill="url(#paint0_linear_3346_41)" style=""/>
<g clip-path="url(#paint1_diamond_3346_41_clip_path)" data-figma-skip-parse="true"><g transform="matrix(0 0.0407412 -0.0407412 0 40.8662 41.3418)"><rect x="0" y="0" width="1000.61" height="1000.61" fill="url(#paint1_diamond_3346_41)" opacity="0.2" shape-rendering="crispEdges"/><rect x="0" y="0" width="1000.61" height="1000.61" transform="scale(1 -1)" fill="url(#paint1_diamond_3346_41)" opacity="0.2" shape-rendering="crispEdges"/><rect x="0" y="0" width="1000.61" height="1000.61" transform="scale(-1 1)" fill="url(#paint1_diamond_3346_41)" opacity="0.2" shape-rendering="crispEdges"/><rect x="0" y="0" width="1000.61" height="1000.61" transform="scale(-1)" fill="url(#paint1_diamond_3346_41)" opacity="0.2" shape-rendering="crispEdges"/></g></g><path d="M21.1667 37.2913C22.1389 35.3468 23.1458 33.4718 24.1875 31.6663C25.2292 29.8607 26.375 28.0552 27.625 26.2496L21.7917 25.1038L13.0417 33.8538L21.1667 37.2913ZM71.375 8.64546C66.5139 8.78435 61.3229 10.208 55.8021 12.9163C50.2812 15.6246 45.2639 19.2357 40.75 23.7496C37.8333 26.6663 35.2292 29.7913 32.9375 33.1246C30.6458 36.458 28.9444 39.583 27.8333 42.4996L39.7083 54.2705C42.625 53.1593 45.75 51.458 49.0833 49.1663C52.4167 46.8746 55.5417 44.2705 58.4583 41.3538C62.9722 36.8399 66.5833 31.8399 69.2917 26.3538C72 20.8677 73.4236 15.6941 73.5625 10.833C73.5625 10.5552 73.5104 10.2774 73.4062 9.99962C73.3021 9.72185 73.1458 9.47879 72.9375 9.27046C72.7292 9.06212 72.4861 8.90587 72.2083 8.80171C71.9306 8.69754 71.6528 8.64546 71.375 8.64546ZM48.4583 33.6455C46.8611 32.0482 46.0625 30.0864 46.0625 27.76C46.0625 25.4337 46.8611 23.4718 48.4583 21.8746C50.0556 20.2774 52.0347 19.4788 54.3958 19.4788C56.7569 19.4788 58.7361 20.2774 60.3333 21.8746C61.9306 23.4718 62.7292 25.4337 62.7292 27.76C62.7292 30.0864 61.9306 32.0482 60.3333 33.6455C58.7361 35.2427 56.7569 36.0413 54.3958 36.0413C52.0347 36.0413 50.0556 35.2427 48.4583 33.6455ZM44.9167 60.9371L48.3542 69.1663L57.1042 60.4163L55.9583 54.583C54.1528 55.833 52.3472 56.9614 50.5417 57.9684C48.7361 58.9753 46.8611 59.9649 44.9167 60.9371ZM81.4792 5.31212C82.0347 12.951 80.7847 20.3989 77.7292 27.6559C74.6736 34.9128 69.8472 41.8399 63.25 48.4371L65.3333 58.7496C65.6111 60.1385 65.5417 61.4927 65.125 62.8121C64.7083 64.1316 64.0139 65.2774 63.0417 66.2496L49.9167 79.3746C48.875 80.4163 47.625 80.8156 46.1667 80.5725C44.7083 80.3295 43.7014 79.5135 43.1458 78.1246L36.7917 63.2288L18.9792 45.4163L4.08333 39.0621C2.69444 38.5066 1.86111 37.4996 1.58333 36.0413C1.30556 34.583 1.6875 33.333 2.72917 32.2913L15.8542 19.1663C16.8264 18.1941 17.9896 17.4996 19.3438 17.083C20.6979 16.6663 22.0694 16.5968 23.4583 16.8746L33.7708 18.958C40.3681 12.3607 47.2951 7.53435 54.5521 4.47879C61.809 1.42324 69.2569 0.173236 76.8958 0.728791C77.4514 0.798236 78.0069 0.954485 78.5625 1.19754C79.1181 1.4406 79.6042 1.77046 80.0208 2.18712C80.4375 2.60379 80.7674 3.0899 81.0104 3.64546C81.2535 4.20101 81.4097 4.75657 81.4792 5.31212ZM7.9375 56.5621C10.3681 54.1316 13.3368 52.8989 16.8438 52.8642C20.3507 52.8295 23.3194 54.0274 25.75 56.458C28.1806 58.8885 29.3785 61.8573 29.3438 65.3642C29.309 68.8711 28.0764 71.8399 25.6458 74.2705C22.3125 77.6038 18.3715 79.583 13.8229 80.208C9.27431 80.833 4.70833 81.458 0.125 82.083C0.75 77.4996 1.375 72.9337 2 68.385C2.625 63.8364 4.60417 59.8955 7.9375 56.5621ZM13.875 62.3955C12.6944 63.576 11.8785 64.9996 11.4271 66.6663C10.9757 68.333 10.6111 70.0343 10.3333 71.7705C12.0694 71.4927 13.7708 71.1455 15.4375 70.7288C17.1042 70.3121 18.5278 69.5135 19.7083 68.333C20.5417 67.4996 20.9931 66.4927 21.0625 65.3121C21.1319 64.1316 20.75 63.1246 19.9167 62.2913C19.0833 61.458 18.0764 61.0587 16.8958 61.0934C15.7153 61.1281 14.7083 61.5621 13.875 62.3955Z" data-figma-gradient-fill="{&#34;type&#34;:&#34;GRADIENT_DIAMOND&#34;,&#34;stops&#34;:[{&#34;color&#34;:{&#34;r&#34;:0.0,&#34;g&#34;:0.0,&#34;b&#34;:0.0,&#34;a&#34;:0.80000001192092896},&#34;position&#34;:0.0},{&#34;color&#34;:{&#34;r&#34;:0.0,&#34;g&#34;:0.0,&#34;b&#34;:0.0,&#34;a&#34;:1.0},&#34;position&#34;:1.0}],&#34;stopsVar&#34;:[{&#34;color&#34;:{&#34;r&#34;:0.0,&#34;g&#34;:0.0,&#34;b&#34;:0.0,&#34;a&#34;:0.80000001192092896},&#34;position&#34;:0.0},{&#34;color&#34;:{&#34;r&#34;:0.0,&#34;g&#34;:0.0,&#34;b&#34;:0.0,&#34;a&#34;:1.0},&#34;position&#34;:1.0}],&#34;transform&#34;:{&#34;m00&#34;:4.9893560962431527e-15,&#34;m01&#34;:-81.482368469238281,&#34;m02&#34;:81.607368469238281,&#34;m10&#34;:81.482368469238281,&#34;m11&#34;:4.9893560962431527e-15,&#34;m12&#34;:0.60058593750},&#34;opacity&#34;:0.20000000298023224,&#34;blendMode&#34;:&#34;NORMAL&#34;,&#34;visible&#34;:true}" style=""/>
<defs>
<clipPath id="paint1_diamond_3346_41_clip_path"><path d="M21.1667 37.2913C22.1389 35.3468 23.1458 33.4718 24.1875 31.6663C25.2292 29.8607 26.375 28.0552 27.625 26.2496L21.7917 25.1038L13.0417 33.8538L21.1667 37.2913ZM71.375 8.64546C66.5139 8.78435 61.3229 10.208 55.8021 12.9163C50.2812 15.6246 45.2639 19.2357 40.75 23.7496C37.8333 26.6663 35.2292 29.7913 32.9375 33.1246C30.6458 36.458 28.9444 39.583 27.8333 42.4996L39.7083 54.2705C42.625 53.1593 45.75 51.458 49.0833 49.1663C52.4167 46.8746 55.5417 44.2705 58.4583 41.3538C62.9722 36.8399 66.5833 31.8399 69.2917 26.3538C72 20.8677 73.4236 15.6941 73.5625 10.833C73.5625 10.5552 73.5104 10.2774 73.4062 9.99962C73.3021 9.72185 73.1458 9.47879 72.9375 9.27046C72.7292 9.06212 72.4861 8.90587 72.2083 8.80171C71.9306 8.69754 71.6528 8.64546 71.375 8.64546ZM48.4583 33.6455C46.8611 32.0482 46.0625 30.0864 46.0625 27.76C46.0625 25.4337 46.8611 23.4718 48.4583 21.8746C50.0556 20.2774 52.0347 19.4788 54.3958 19.4788C56.7569 19.4788 58.7361 20.2774 60.3333 21.8746C61.9306 23.4718 62.7292 25.4337 62.7292 27.76C62.7292 30.0864 61.9306 32.0482 60.3333 33.6455C58.7361 35.2427 56.7569 36.0413 54.3958 36.0413C52.0347 36.0413 50.0556 35.2427 48.4583 33.6455ZM44.9167 60.9371L48.3542 69.1663L57.1042 60.4163L55.9583 54.583C54.1528 55.833 52.3472 56.9614 50.5417 57.9684C48.7361 58.9753 46.8611 59.9649 44.9167 60.9371ZM81.4792 5.31212C82.0347 12.951 80.7847 20.3989 77.7292 27.6559C74.6736 34.9128 69.8472 41.8399 63.25 48.4371L65.3333 58.7496C65.6111 60.1385 65.5417 61.4927 65.125 62.8121C64.7083 64.1316 64.0139 65.2774 63.0417 66.2496L49.9167 79.3746C48.875 80.4163 47.625 80.8156 46.1667 80.5725C44.7083 80.3295 43.7014 79.5135 43.1458 78.1246L36.7917 63.2288L18.9792 45.4163L4.08333 39.0621C2.69444 38.5066 1.86111 37.4996 1.58333 36.0413C1.30556 34.583 1.6875 33.333 2.72917 32.2913L15.8542 19.1663C16.8264 18.1941 17.9896 17.4996 19.3438 17.083C20.6979 16.6663 22.0694 16.5968 23.4583 16.8746L33.7708 18.958C40.3681 12.3607 47.2951 7.53435 54.5521 4.47879C61.809 1.42324 69.2569 0.173236 76.8958 0.728791C77.4514 0.798236 78.0069 0.954485 78.5625 1.19754C79.1181 1.4406 79.6042 1.77046 80.0208 2.18712C80.4375 2.60379 80.7674 3.0899 81.0104 3.64546C81.2535 4.20101 81.4097 4.75657 81.4792 5.31212ZM7.9375 56.5621C10.3681 54.1316 13.3368 52.8989 16.8438 52.8642C20.3507 52.8295 23.3194 54.0274 25.75 56.458C28.1806 58.8885 29.3785 61.8573 29.3438 65.3642C29.309 68.8711 28.0764 71.8399 25.6458 74.2705C22.3125 77.6038 18.3715 79.583 13.8229 80.208C9.27431 80.833 4.70833 81.458 0.125 82.083C0.75 77.4996 1.375 72.9337 2 68.385C2.625 63.8364 4.60417 59.8955 7.9375 56.5621ZM13.875 62.3955C12.6944 63.576 11.8785 64.9996 11.4271 66.6663C10.9757 68.333 10.6111 70.0343 10.3333 71.7705C12.0694 71.4927 13.7708 71.1455 15.4375 70.7288C17.1042 70.3121 18.5278 69.5135 19.7083 68.333C20.5417 67.4996 20.9931 66.4927 21.0625 65.3121C21.1319 64.1316 20.75 63.1246 19.9167 62.2913C19.0833 61.458 18.0764 61.0587 16.8958 61.0934C15.7153 61.1281 14.7083 61.5621 13.875 62.3955Z"/></clipPath><linearGradient id="paint0_linear_3346_41" x1="0.125" y1="41.3418" x2="81.6074" y2="41.3418" gradientUnits="userSpaceOnUse">
<stop stop-color="#292929" style="stop-color:#292929;stop-color:color(display-p3 0.1625 0.1625 0.1625);stop-opacity:1;"/>
<stop offset="1" stop-color="#424242" style="stop-color:#424242;stop-color:color(display-p3 0.2583 0.2583 0.2583);stop-opacity:1;"/>
</linearGradient>
<linearGradient id="paint1_diamond_3346_41" x1="0" y1="0" x2="500" y2="500" gradientUnits="userSpaceOnUse">
<stop stop-opacity="0.8" style="stop-color:black;stop-opacity:0.8;"/>
<stop offset="1" style="stop-color:black;stop-opacity:1;"/>
</linearGradient>
</defs>
</svg>
