<svg width="109" height="106" viewBox="0 0 109 106" fill="none" xmlns="http://www.w3.org/2000/svg">
<g filter="url(#filter0_d_3066_6477)">
<path d="M85.2079 42.292C84.1223 41.6608 83.1467 40.8569 82.3197 39.9119C82.4034 38.5962 82.7167 37.3054 83.2457 36.0978C84.2184 33.3534 85.3182 30.2445 83.5532 27.8277C81.7882 25.4109 78.4555 25.4877 75.5305 25.5546C74.2381 25.6876 72.9324 25.5994 71.6696 25.2939C70.9968 24.1991 70.5163 22.9973 70.2489 21.7405C69.4199 18.9158 68.4739 15.7234 65.569 14.7674C62.7677 13.8648 60.1737 15.8505 57.8805 17.5954C56.891 18.499 55.7445 19.2139 54.4976 19.7047C53.2377 19.2179 52.0784 18.5028 51.0779 17.5954C48.7915 15.8605 46.2075 13.8548 43.3929 14.7707C40.4946 15.7134 39.5486 18.9158 38.7129 21.7405C38.446 22.9932 37.9702 24.1922 37.3056 25.2872C36.0404 25.5919 34.7331 25.6823 33.438 25.5546C30.503 25.4744 27.197 25.3875 25.4153 27.8277C23.6336 30.2679 24.7467 33.3534 25.7228 36.0944C26.2592 37.3002 26.5772 38.5916 26.6622 39.9086C25.8367 40.8548 24.8623 41.6599 23.7773 42.292C21.3304 43.9634 18.5525 45.8654 18.5525 48.9542C18.5525 52.0429 21.3304 53.9383 23.7773 55.6164C24.8621 56.2474 25.8365 57.0514 26.6622 57.9965C26.5861 59.3129 26.2771 60.6054 25.7496 61.8139C24.7802 64.555 23.6837 67.6638 25.4454 70.0807C27.207 72.4975 30.5298 72.4206 33.4681 72.3538C34.7616 72.2207 36.0684 72.3088 37.3324 72.6145C38.0022 73.7104 38.4814 74.9119 38.7497 76.1679C39.5787 78.9926 40.5247 82.1849 43.4296 83.141C43.8953 83.2903 44.3813 83.367 44.8704 83.3683C47.2211 83.031 49.4058 81.962 51.1147 80.313C52.1042 79.4094 53.2507 78.6945 54.4976 78.2037C55.7575 78.6905 56.9168 79.4055 57.9173 80.313C60.2071 82.0613 62.8011 84.0569 65.6057 83.1376C68.5039 82.195 69.45 78.9926 70.2857 76.1712C70.5535 74.9161 71.0328 73.7157 71.703 72.6212C72.9633 72.3144 74.2666 72.2239 75.5572 72.3538C78.4922 72.424 81.7983 72.5209 83.58 70.0807C85.3617 67.6404 84.2485 64.555 83.2724 61.8106C82.7398 60.6059 82.4219 59.3173 82.3331 58.0031C83.159 57.056 84.1347 56.2509 85.2213 55.6197C87.6682 53.9483 90.4461 52.0429 90.4461 48.9542C90.4461 45.8654 87.6582 43.9667 85.2079 42.292Z" fill="#111111" style="fill:#111111;fill:color(display-p3 0.0683 0.0683 0.0683);fill-opacity:1;"/>
<path d="M51.1554 58.1441C50.8261 58.1447 50.5 58.0801 50.1959 57.9538C49.8918 57.8276 49.6157 57.6423 49.3837 57.4087L42.6981 50.7231C42.2553 50.2478 42.0142 49.6192 42.0256 48.9697C42.0371 48.3202 42.3002 47.7005 42.7595 47.2412C43.2189 46.7818 43.8386 46.5187 44.4881 46.5073C45.1376 46.4958 45.7662 46.7369 46.2415 47.1797L51.3894 52.3277L63.0223 43.6029C63.5543 43.204 64.2229 43.0327 64.8811 43.1267C65.5394 43.2208 66.1333 43.5724 66.5323 44.1044C66.9312 44.6363 67.1025 45.3049 67.0085 45.9632C66.9144 46.6214 66.5628 47.2154 66.0308 47.6143L52.6596 57.6427C52.2256 57.968 51.6978 58.1439 51.1554 58.1441Z" fill="white" style="fill:white;fill-opacity:1;"/>
</g>
<defs>
<filter id="filter0_d_3066_6477" x="-4.16805" y="-5.69777" width="117.332" height="117.332" filterUnits="userSpaceOnUse" color-interpolation-filters="sRGB">
<feFlood flood-opacity="0" result="BackgroundImageFix"/>
<feColorMatrix in="SourceAlpha" type="matrix" values="0 0 0 0 0 0 0 0 0 0 0 0 0 0 0 0 0 0 127 0" result="hardAlpha"/>
<feOffset dy="4"/>
<feGaussianBlur stdDeviation="9.25"/>
<feComposite in2="hardAlpha" operator="out"/>
<feColorMatrix type="matrix" values="0 0 0 0 0.0958333 0 0 0 0 0.0958333 0 0 0 0 0.0958333 0 0 0 0.32 0"/>
<feBlend mode="normal" in2="BackgroundImageFix" result="effect1_dropShadow_3066_6477"/>
<feBlend mode="normal" in="SourceGraphic" in2="effect1_dropShadow_3066_6477" result="shape"/>
</filter>
</defs>
</svg>
