<svg width="40" height="40" viewBox="0 0 40 40" fill="none" xmlns="http://www.w3.org/2000/svg">
<g clip-path="url(#clip0_3066_13487)">
<path d="M15 6.66667C15 2.985 20.5967 0 27.5 0C34.4033 0 40 2.985 40 6.66667C40 10.3483 34.4033 13.3333 27.5 13.3333C20.5967 13.3333 15 10.3483 15 6.66667ZM27.5 16.6667C25.7883 16.6667 24.165 16.475 22.6817 16.1417C20.4167 14.4433 16.705 13.3333 12.5 13.3333C5.59667 13.3333 0 16.3183 0 20C0 23.6817 5.59667 26.6667 12.5 26.6667C19.4033 26.6667 25 23.6817 25 20C25 19.9517 24.9883 19.905 24.9867 19.8567H25V23.3333C25 27.015 19.4033 30 12.5 30C5.59667 30 0 27.015 0 23.3333V26.6667C0 30.3483 5.59667 33.3333 12.5 33.3333C19.4033 33.3333 25 30.3483 25 26.6667V30C25 33.6817 19.4033 36.6667 12.5 36.6667C5.59667 36.6667 0 33.6817 0 30V33.3333C0 37.015 5.59667 40 12.5 40C19.4033 40 25 37.015 25 33.3333V33.2C25.8083 33.2867 26.6433 33.3333 27.5 33.3333C34.4033 33.3333 40 30.3483 40 26.6667V23.3333C40 26.865 34.8467 29.7483 28.3333 29.9783V26.645C34.8467 26.415 40 23.5333 40 20V16.6667C40 20.1983 34.8467 23.0817 28.3333 23.3117V19.9783C34.8467 19.7483 40 16.8667 40 13.3333V10C40 13.6817 34.4033 16.6667 27.5 16.6667Z" fill="black" style="fill:black;fill-opacity:1;"/>
</g>
<defs>
<clipPath id="clip0_3066_13487">
<rect width="40" height="40" fill="white" style="fill:white;fill-opacity:1;"/>
</clipPath>
</defs>
</svg>
