<svg width="784" height="69" viewBox="0 0 784 69" fill="none" xmlns="http://www.w3.org/2000/svg">
<path d="M43.7442 66.9686H-0.000781179V63.0982L39.0637 7.02174H0.179239V3.06128H44.1943V6.93173L5.12981 63.0082H43.7442V66.9686ZM93.5354 66.9686H55.9111V3.06128H93.4454V7.02174H60.2316V32.9447H90.4751V36.9052H60.2316V63.0082H93.5354V66.9686ZM111.39 66.9686H107.069V3.06128H130.652C142.803 3.06128 150.454 10.0821 150.454 20.9733C150.454 30.3344 145.234 36.9952 136.683 38.7954L150.994 66.9686H146.134L132.182 39.3354H111.39V66.9686ZM111.39 7.02174V35.375H130.832C140.463 35.375 146.044 29.9744 146.044 21.1534C146.044 12.0623 140.013 7.02174 130.652 7.02174H111.39ZM219.409 35.0149C219.409 54.3672 206.897 68.0487 189.165 68.0487C171.433 68.0487 159.012 54.3672 159.012 35.0149C159.012 15.6627 171.523 1.98116 189.165 1.98116C206.897 1.98116 219.409 15.6627 219.409 35.0149ZM214.998 35.0149C214.998 18.003 204.377 6.12163 189.165 6.12163C174.043 6.12163 163.422 18.003 163.422 35.0149C163.422 52.0269 174.043 63.9083 189.165 63.9083C204.377 63.9083 214.998 52.0269 214.998 35.0149ZM283.767 68.0487C264.595 68.0487 252.174 54.7272 252.174 34.1148C252.174 13.6825 265.045 0.0909452 284.307 0.0909452C299.879 0.0909452 311.49 9.18199 313.741 23.3136H301.589C299.339 15.6627 292.768 11.1622 284.037 11.1622C271.886 11.1622 264.235 19.9832 264.235 34.0248C264.235 47.9764 271.976 56.9775 284.037 56.9775C292.948 56.9775 299.789 52.2969 301.949 45.0061H313.921C311.4 58.8677 299.339 68.0487 283.767 68.0487ZM384.29 34.0248C384.29 54.0071 371.148 68.0487 352.246 68.0487C333.434 68.0487 320.473 54.0971 320.473 34.0248C320.473 14.0425 333.524 0.000936019 352.336 0.000936019C371.148 0.000936019 384.29 13.9525 384.29 34.0248ZM372.138 34.0248C372.138 19.9832 364.398 11.0722 352.336 11.0722C340.275 11.0722 332.534 19.9832 332.534 34.0248C332.534 48.0664 340.275 56.9775 352.336 56.9775C364.398 56.9775 372.138 47.8864 372.138 34.0248ZM406.174 66.9686H395.013V1.17107H406.174L427.417 53.5571L448.659 1.17107H460V66.9686H448.839V46.7163C448.839 33.4848 448.839 29.6143 449.469 24.9338L432.727 66.9686H422.106L405.454 25.0238C406.084 28.9843 406.174 35.195 406.174 43.3859V66.9686ZM485.724 66.9686H474.563V1.17107H485.724L506.967 53.5571L528.209 1.17107H539.551V66.9686H528.389V46.7163C528.389 33.4848 528.389 29.6143 529.019 24.9338L512.277 66.9686H501.656L485.004 25.0238C485.634 28.9843 485.724 35.195 485.724 43.3859V66.9686ZM565.635 1.17107V66.9686H554.113V1.17107H565.635ZM576.439 19.5332C576.439 8.01185 585.98 0.000936019 599.842 0.000936019C613.164 0.000936019 621.625 7.38178 621.985 19.2631H610.463C610.193 13.5925 606.143 10.2621 599.662 10.2621C592.551 10.2621 587.961 13.6825 587.961 19.1731C587.961 23.8537 590.481 26.464 595.972 27.7241L606.323 29.9744C617.574 32.4047 623.065 38.1653 623.065 47.9764C623.065 60.2178 613.524 68.1387 599.032 68.1387C584.99 68.1387 575.809 60.6679 575.539 48.8765H587.061C587.151 54.4572 591.651 57.7876 599.032 57.7876C606.683 57.7876 611.543 54.4572 611.543 48.9665C611.543 44.556 609.293 41.9457 603.892 40.7756L593.451 38.4353C582.29 36.0051 576.439 29.6143 576.439 19.5332ZM645.009 1.17107V66.9686H633.488V1.17107H645.009ZM719.631 34.0248C719.631 54.0071 706.489 68.0487 687.587 68.0487C668.775 68.0487 655.814 54.0971 655.814 34.0248C655.814 14.0425 668.865 0.000936019 687.677 0.000936019C706.489 0.000936019 719.631 13.9525 719.631 34.0248ZM707.48 34.0248C707.48 19.9832 699.739 11.0722 687.677 11.0722C675.616 11.0722 667.875 19.9832 667.875 34.0248C667.875 48.0664 675.616 56.9775 687.677 56.9775C699.739 56.9775 707.48 47.8864 707.48 34.0248ZM741.695 66.9686H730.354V1.17107H741.785L772.659 47.7964V1.17107H784V66.9686H772.659L741.695 20.3433V66.9686Z" fill="url(#paint0_linear_2948_5611)" style=""/>
<defs>
<linearGradient id="paint0_linear_2948_5611" x1="393.994" y1="-8.42264" x2="393.994" y2="69.5341" gradientUnits="userSpaceOnUse">
<stop stop-color="white" style="stop-color:white;stop-opacity:1;"/>
<stop offset="1" stop-color="#1E1E1E" style="stop-color:#1E1E1E;stop-color:color(display-p3 0.1176 0.1176 0.1176);stop-opacity:1;"/>
</linearGradient>
</defs>
</svg>
